<?xml version="1.0" encoding="UTF-8" standalone="no"?>
<!-- Created with Inkscape (http://www.inkscape.org/) -->

<svg
   version="1.1"
   id="svg2"
   xml:space="preserve"
   width="2150.8301"
   height="2528.0938"
   viewBox="0 0 2150.8301 2528.0938"
   sodipodi:docname="lifepack.svg"
   inkscape:version="1.1.2 (b8e25be833, 2022-02-05)"
   inkscape:export-filename="C:\Users\bjs33\Downloads\vecteezy_illustration-of-backpack-school-bag-storage-icon-icon_7396212.png"
   inkscape:export-xdpi="3.6600001"
   inkscape:export-ydpi="3.6600001"
   xmlns:inkscape="http://www.inkscape.org/namespaces/inkscape"
   xmlns:sodipodi="http://sodipodi.sourceforge.net/DTD/sodipodi-0.dtd"
   xmlns:xlink="http://www.w3.org/1999/xlink"
   xmlns="http://www.w3.org/2000/svg"
   xmlns:svg="http://www.w3.org/2000/svg"><defs
     id="defs6"><linearGradient
       inkscape:collect="always"
       id="linearGradient28487"><stop
         style="stop-color:#00c2ff;stop-opacity:1;"
         offset="0"
         id="stop28483" /><stop
         style="stop-color:#006576;stop-opacity:0.52156866"
         offset="0.47538155"
         id="stop28589" /><stop
         style="stop-color:#ffff00;stop-opacity:0"
         offset="1"
         id="stop28485" /></linearGradient><linearGradient
       inkscape:collect="always"
       xlink:href="#linearGradient28487"
       id="linearGradient28489"
       x1="365.30838"
       y1="1309.323"
       x2="2495.6709"
       y2="2314.8252"
       gradientUnits="userSpaceOnUse" /></defs><sodipodi:namedview
     id="namedview4"
     pagecolor="#ffffff"
     bordercolor="#666666"
     borderopacity="1.0"
     inkscape:pageshadow="2"
     inkscape:pageopacity="0.0"
     inkscape:pagecheckerboard="0"
     showgrid="false"
     inkscape:zoom="0.27647875"
     inkscape:cx="1698.1414"
     inkscape:cy="1406.9797"
     inkscape:window-width="1920"
     inkscape:window-height="986"
     inkscape:window-x="-11"
     inkscape:window-y="-11"
     inkscape:window-maximized="1"
     inkscape:current-layer="g8"
     inkscape:snap-to-guides="true" /><g
     id="g8"
     inkscape:groupmode="layer"
     inkscape:label="ink_ext_XXXXXX"
     transform="matrix(1.3333333,0,0,-1.3333333,-1138.5381,3299.8594)"><g
       id="g10"
       transform="matrix(0.1,0,0,0.1,160.65546,26.85422)"><path
         id="path30"
         style="opacity:1;mix-blend-mode:normal;fill:url(#linearGradient28489);fill-opacity:1;fill-rule:nonzero;stroke:none;stroke-width:0.133333"
         d="M 1077.002,0 C 814.85525,0 603.24219,211.73367 603.24219,474.01367 H 445.32227 v 600.42773 c 0,34.76 28.42722,63.1992 63.17382,63.1992 h 128.27344 c -6.6184,-68.8763 16.42558,-140.07214 69.14258,-192.78904 46.8368,-46.8369 108.3518,-70.47851 169.6875,-70.47851 61.3351,0 122.84679,23.64221 169.68359,70.47851 l 30.1309,30.13282 30.1328,-30.13282 c 93.6738,-93.6738 245.6953,-93.6738 339.3691,0 52.717,52.7169 75.7628,123.91274 69.1445,192.78904 h 131.4356 c 34.7467,0 63.1738,-28.4392 63.1738,-63.1992 V 474.01367 H 1550.75 C 1550.75,211.73367 1339.1353,0 1077.002,0 Z m 0,189.59961 c 157.9067,0 284.2402,126.41406 284.2402,284.41406 H 792.75 c 0,-158 126.33195,-284.41406 284.252,-284.41406 z M 318.99219,508.77344 c -78.96,44.24 -126.33399,126.41273 -126.33399,218.05273 V 1485.2539 H 129.49219 C 60.008187,1485.2539 3.15867,1542.1343 0,1611.6543 v 505.6269 c 0,69.5201 56.849984,126.3985 126.33398,126.3985 h 63.16797 v 158 c 0,69.52 56.84803,126.4141 126.33203,126.4141 h 126.32813 v -432.9336 c 0,-91.6533 75.80039,-167.4922 167.40039,-167.4922 h 931.707 c 91.6,0 167.4004,75.8389 167.4004,167.4922 v 432.9336 h 126.3321 c 69.48,0 126.3339,-56.8941 126.3339,-126.4141 v -158 h 63.1602 c 69.4934,0 126.334,-56.8784 126.334,-126.3985 v -505.6269 c 0,-69.52 -56.8406,-126.4004 -126.334,-126.4004 h -63.1602 V 726.82617 c 0,-88.48 -47.3739,-173.81273 -126.3339,-218.05273 v 565.66796 c 0,104.28 -85.2792,189.5996 -189.5059,189.5996 h -219.0859 c -0.2954,0.2989 -0.3725,0.7083 -0.67,1.0059 L 1075.4141,1615.373 725.08594,1265.0469 c -0.2976,-0.2976 -0.37452,-0.707 -0.66992,-1.0059 H 508.49609 c -104.228,0 -189.5039,-85.3196 -189.5039,-189.5996 z M 612.72266,2054.0664 c -22.10667,0 -41.06641,18.9604 -41.06641,41.0938 v 432.9336 H 1582.3359 v -432.9336 c 0,-22.1334 -18.9597,-41.0938 -41.0664,-41.0938 z"
         transform="matrix(7.5000002,0,0,-7.5000002,6932.4812,24480.404)" /></g><g
       id="rect2165"
       transform="matrix(0.71746476,0,0,0.71746476,429.16718,473.48643)" /></g></svg>
