<?xml version="1.0" encoding="UTF-8" standalone="no"?>
<!-- Created with Inkscape (http://www.inkscape.org/) -->

<svg
   width="118.20803mm"
   height="158.52437mm"
   viewBox="0 0 118.20803 158.52437"
   version="1.1"
   id="svg5"
   inkscape:version="1.1.2 (b8e25be833, 2022-02-05)"
   sodipodi:docname="logoicon.svg"
   inkscape:export-filename="C:\Users\bjs33\OneDrive\Documents\Icons\logoicon.png"
   inkscape:export-xdpi="25.4"
   inkscape:export-ydpi="25.4"
   xmlns:inkscape="http://www.inkscape.org/namespaces/inkscape"
   xmlns:sodipodi="http://sodipodi.sourceforge.net/DTD/sodipodi-0.dtd"
   xmlns="http://www.w3.org/2000/svg"
   xmlns:svg="http://www.w3.org/2000/svg">
  <sodipodi:namedview
     id="namedview7"
     pagecolor="#2c2f33"
     bordercolor="#999999"
     borderopacity="1"
     inkscape:pageshadow="0"
     inkscape:pageopacity="0"
     inkscape:pagecheckerboard="0"
     inkscape:document-units="mm"
     showgrid="false"
     inkscape:zoom="0.69664703"
     inkscape:cx="666.76521"
     inkscape:cy="265.55772"
     inkscape:window-width="1920"
     inkscape:window-height="986"
     inkscape:window-x="-11"
     inkscape:window-y="-11"
     inkscape:window-maximized="1"
     inkscape:current-layer="g7365"
     fit-margin-top="0"
     fit-margin-left="0"
     fit-margin-right="0"
     fit-margin-bottom="0" />
  <defs
     id="defs2">
    <inkscape:perspective
       sodipodi:type="inkscape:persp3d"
       inkscape:vp_x="70.262148 : 9.5651798 : 1"
       inkscape:vp_y="0 : 1000 : 0"
       inkscape:vp_z="269.15361 : 9.5651798 : 1"
       inkscape:persp3d-origin="169.70788 : -32.491971 : 1"
       id="perspective3854" />
    <inkscape:path-effect
       effect="bspline"
       id="path-effect1012"
       is_visible="true"
       lpeversion="1"
       weight="33.333333"
       steps="2"
       helper_size="0"
       apply_no_weight="true"
       apply_with_weight="true"
       only_selected="false" />
    <inkscape:path-effect
       effect="bspline"
       id="path-effect879"
       is_visible="true"
       lpeversion="1"
       weight="33.333333"
       steps="2"
       helper_size="0"
       apply_no_weight="true"
       apply_with_weight="true"
       only_selected="false" />
    <inkscape:path-effect
       effect="bspline"
       id="path-effect6340"
       is_visible="true"
       lpeversion="1"
       weight="33.333333"
       steps="2"
       helper_size="0"
       apply_no_weight="true"
       apply_with_weight="true"
       only_selected="false" />
    <inkscape:path-effect
       effect="bspline"
       id="path-effect3066"
       is_visible="true"
       lpeversion="1"
       weight="33.333333"
       steps="2"
       helper_size="0"
       apply_no_weight="true"
       apply_with_weight="true"
       only_selected="false" />
    <inkscape:path-effect
       effect="bspline"
       id="path-effect2637"
       is_visible="true"
       lpeversion="1"
       weight="33.333333"
       steps="2"
       helper_size="0"
       apply_no_weight="true"
       apply_with_weight="true"
       only_selected="false" />
    <inkscape:path-effect
       effect="bspline"
       id="path-effect1886"
       is_visible="true"
       lpeversion="1"
       weight="33.333333"
       steps="2"
       helper_size="0"
       apply_no_weight="true"
       apply_with_weight="true"
       only_selected="false" />
    <inkscape:path-effect
       effect="bspline"
       id="path-effect1198"
       is_visible="true"
       lpeversion="1"
       weight="33.333333"
       steps="2"
       helper_size="0"
       apply_no_weight="true"
       apply_with_weight="true"
       only_selected="false" />
    <inkscape:path-effect
       effect="bspline"
       id="path-effect1058"
       is_visible="true"
       lpeversion="1"
       weight="33.333333"
       steps="2"
       helper_size="0"
       apply_no_weight="true"
       apply_with_weight="true"
       only_selected="false" />
    <inkscape:path-effect
       effect="bspline"
       id="path-effect311"
       is_visible="true"
       lpeversion="1"
       weight="33.333333"
       steps="2"
       helper_size="0"
       apply_no_weight="true"
       apply_with_weight="true"
       only_selected="false" />
    <inkscape:path-effect
       effect="bspline"
       id="path-effect72"
       is_visible="true"
       lpeversion="1"
       weight="33.333333"
       steps="2"
       helper_size="0"
       apply_no_weight="true"
       apply_with_weight="true"
       only_selected="false" />
    <inkscape:path-effect
       effect="bspline"
       id="path-effect311-1"
       is_visible="true"
       lpeversion="1"
       weight="33.333333"
       steps="2"
       helper_size="0"
       apply_no_weight="true"
       apply_with_weight="true"
       only_selected="false" />
    <inkscape:path-effect
       effect="bspline"
       id="path-effect1198-5"
       is_visible="true"
       lpeversion="1"
       weight="33.333333"
       steps="2"
       helper_size="0"
       apply_no_weight="true"
       apply_with_weight="true"
       only_selected="false" />
    <inkscape:path-effect
       effect="bspline"
       id="path-effect1198-7"
       is_visible="true"
       lpeversion="1"
       weight="33.333333"
       steps="2"
       helper_size="0"
       apply_no_weight="true"
       apply_with_weight="true"
       only_selected="false" />
    <inkscape:path-effect
       effect="bspline"
       id="path-effect1198-7-4"
       is_visible="true"
       lpeversion="1"
       weight="33.333333"
       steps="2"
       helper_size="0"
       apply_no_weight="true"
       apply_with_weight="true"
       only_selected="false" />
    <inkscape:path-effect
       effect="bspline"
       id="path-effect1198-5-6"
       is_visible="true"
       lpeversion="1"
       weight="33.333333"
       steps="2"
       helper_size="0"
       apply_no_weight="true"
       apply_with_weight="true"
       only_selected="false" />
    <inkscape:path-effect
       effect="bspline"
       id="path-effect1198-1"
       is_visible="true"
       lpeversion="1"
       weight="33.333333"
       steps="2"
       helper_size="0"
       apply_no_weight="true"
       apply_with_weight="true"
       only_selected="false" />
    <inkscape:path-effect
       effect="bspline"
       id="path-effect1198-7-4-1"
       is_visible="true"
       lpeversion="1"
       weight="33.333333"
       steps="2"
       helper_size="0"
       apply_no_weight="true"
       apply_with_weight="true"
       only_selected="false" />
    <inkscape:path-effect
       effect="bspline"
       id="path-effect1012-1"
       is_visible="true"
       lpeversion="1"
       weight="33.333333"
       steps="2"
       helper_size="0"
       apply_no_weight="true"
       apply_with_weight="true"
       only_selected="false" />
  </defs>
  <g
     inkscape:label="Layer 1"
     inkscape:groupmode="layer"
     id="layer1"
     transform="translate(-29.192429,-47.386533)">
    <g
       id="g7365"
       style="fill:#c9bc3f;fill-opacity:1;stroke:#ffffff;stroke-opacity:1">
      <path
         id="path1196"
         style="fill:#ffb380;fill-opacity:1;stroke:none;stroke-width:0.250975px;stroke-linecap:butt;stroke-linejoin:miter;stroke-opacity:1"
         d="m 134.98116,47.386533 c -6.33342,1.9113 -12.66659,3.822351 -15.98422,7.406151 -3.31763,3.583799 -3.61938,8.839919 -3.92097,14.095836 -11.32712,17.801162 -23.587993,35.22186 -34.915036,54.37797 -11.808552,19.97043 -8.967466,56.31697 -35.935588,82.64441 28.12341,-2.15021 30.460427,-61.16114 40.308662,-81.13153 9.848234,-19.97035 21.778502,-36.974659 32.351642,-54.457276 5.65485,-2.707676 11.30973,-5.415408 14.32566,-9.23794 3.01594,-3.822531 3.39287,-8.760098 3.76985,-13.697621 z M 78.381113,56.72427 c -0.152905,-0.01182 0.281334,0.537779 1.092883,1.709886 1.52762,2.206319 4.391949,6.61877 5.155728,10.779112 0.763783,4.160343 -0.572853,8.068479 0.763879,12.859253 1.336733,4.79078 5.346686,10.46387 7.351651,13.30039 3.914507,-2.33239 5.824083,-7.50117 5.601374,-12.7016 C 98.123916,77.470881 95.768743,72.239068 91.949673,67.826505 88.130605,63.41394 82.847703,59.821163 80.301584,58.024564 79.108089,57.182408 78.516028,56.734704 78.381113,56.72427 Z M 54.634977,73.042308 c -0.181006,-0.01776 0.332864,0.80798 1.293547,2.569381 1.808348,3.315581 5.199205,9.946362 6.103344,16.198412 0.904142,6.25206 -0.678161,12.124919 0.904224,19.324329 1.582382,7.19939 6.329333,15.72515 8.70275,19.98779 4.633876,-3.50505 6.894187,-11.27259 6.63055,-19.08766 C 78.005757,104.21949 75.217963,96.357431 70.697074,89.726381 66.176184,83.095331 59.922171,77.695873 56.908151,74.996001 55.495327,73.730436 54.794688,73.05799 54.634977,73.042308 Z m 62.008153,18.508063 c -2.44024,0.0101 -4.78974,0.43908 -6.94479,1.31849 -4.59743,1.87609 -8.30976,5.80138 -8.75722,10.524909 3.2651,0.79813 9.79535,2.39463 14.48571,1.76059 4.69036,-0.63402 7.54043,-3.49847 11.45388,-4.43302 3.91346,-0.934544 8.89042,0.0608 11.41728,0.6508 2.52685,0.58996 2.60346,0.77453 0.0222,-0.96515 -2.58131,-1.739669 -7.82024,-5.403338 -13.18108,-7.321948 -2.84794,-1.019261 -5.73033,-1.546131 -8.49593,-1.534671 z m -87.395,8.400545 c -0.280694,-0.0232 0.516551,1.052734 2.006339,3.347604 2.804308,4.31978 8.062374,12.95887 9.464477,21.10443 1.402104,8.14557 -1.051391,15.79738 1.402498,25.17726 2.453888,9.37989 9.81503,20.48736 13.49562,26.04099 7.186009,-4.56659 10.691363,-14.68648 10.282524,-24.86845 C 65.490749,140.57079 61.167509,130.32732 54.156705,121.68793 47.145902,113.04855 37.447923,106.01382 32.773918,102.49624 30.58298,100.84738 29.495801,99.971346 29.24813,99.950916 Z m 82.08199,21.425274 c -4.77701,-0.0259 -9.48964,0.83295 -13.789843,2.63797 -6.880307,2.88803 -12.704147,8.19789 -13.878791,14.08868 4.649466,0.5809 13.948725,1.74256 20.825734,0.37742 6.877,-1.36516 11.33131,-5.25704 17.11437,-6.89708 5.78304,-1.64005 12.89443,-1.02809 16.49572,-0.61277 3.60129,0.41532 3.69219,0.63392 0.13973,-1.19497 -3.55246,-1.82889 -10.74792,-5.70495 -18.31403,-7.41005 -2.8373,-0.63941 -5.72667,-0.97363 -8.59289,-0.9892 z m -8.25125,35.46909 c -5.066836,0.034 -9.968973,0.9436 -14.464168,2.79336 -8.990394,3.69952 -16.352759,11.15913 -17.4212,19.94489 6.294251,1.3258 18.883127,3.97743 28.000714,2.57816 9.117604,-1.39929 14.763314,-6.84952 22.387974,-8.76951 7.62465,-1.92001 17.22792,-0.30952 22.10019,0.66509 4.87229,0.97463 5.01319,1.31352 0.0843,-1.79181 -4.92888,-3.10531 -14.92676,-9.65475 -25.23513,-12.96002 -5.15417,-1.65263 -10.38588,-2.49414 -15.45272,-2.46016 z" />
    </g>
  </g>
</svg>
